# Blender 4.2.14 LTS
# www.blender.org
o Circle
v 0.000000 1.000000 0.000000
v -0.382683 0.923880 0.000000
v -0.707107 0.707107 0.000000
v -0.923879 0.382683 0.000000
v -1.000000 0.000000 0.000000
v -0.923879 -0.382683 0.000000
v -0.707107 -0.707107 0.000000
v -0.382683 -0.923880 0.000000
v 0.000000 -1.000000 0.000000
v 0.382683 -0.923880 0.000000
v 0.707107 -0.707107 0.000000
v 0.923879 -0.382683 0.000000
v 1.000000 0.000000 0.000000
v 0.923879 0.382683 0.000000
v 0.707107 0.707107 0.000000
v 0.382683 0.923880 0.000000
v -0.524297 0.500000 0.000000
v -0.574025 0.000000 0.000000
v -0.524297 -0.500000 0.000000
v 0.000000 0.541196 -0.000000
v 0.000000 0.000000 -0.000000
v 0.000000 -0.541196 -0.000000
v 0.524297 0.500000 0.000000
v 0.574025 -0.000000 0.000000
v 0.524297 -0.500000 0.000000
vn -0.0000 -0.0000 1.0000
vt 0.000000 0.000000
s 0
f 4/1/1 17/1/1 2/1/1 3/1/1
f 17/1/1 20/1/1 1/1/1 2/1/1
f 20/1/1 23/1/1 16/1/1 1/1/1
f 23/1/1 14/1/1 15/1/1 16/1/1
f 5/1/1 18/1/1 17/1/1 4/1/1
f 18/1/1 21/1/1 20/1/1 17/1/1
f 21/1/1 24/1/1 23/1/1 20/1/1
f 24/1/1 13/1/1 14/1/1 23/1/1
f 6/1/1 19/1/1 18/1/1 5/1/1
f 19/1/1 22/1/1 21/1/1 18/1/1
f 22/1/1 25/1/1 24/1/1 21/1/1
f 25/1/1 12/1/1 13/1/1 24/1/1
f 7/1/1 8/1/1 19/1/1 6/1/1
f 8/1/1 9/1/1 22/1/1 19/1/1
f 9/1/1 10/1/1 25/1/1 22/1/1
f 10/1/1 11/1/1 12/1/1 25/1/1
